<?xml version="1.0" encoding="UTF-8" standalone="no"?>
<!DOCTYPE svg PUBLIC "-//W3C//DTD SVG 1.1//EN"
 "http://www.w3.org/Graphics/SVG/1.1/DTD/svg11.dtd">
<!-- Generated by graphviz version 2.50.0 (0)
 -->
<!-- Title: asm Pages: 1 -->
<svg width="2134pt" height="260pt"
 viewBox="0.00 0.00 2134.24 260.00" xmlns="http://www.w3.org/2000/svg" xmlns:xlink="http://www.w3.org/1999/xlink">
<g id="graph0" class="graph" transform="scale(1 1) rotate(0) translate(4 256)">
<title>asm</title>
<polygon fill="white" stroke="transparent" points="-4,4 -4,-256 2130.24,-256 2130.24,4 -4,4"/>
<!-- asm_main -->
<g id="node1" class="node">
<title>asm_main</title>
<ellipse fill="none" stroke="black" cx="1081.84" cy="-234" rx="57.39" ry="18"/>
<text text-anchor="middle" x="1081.84" y="-230.3" font-family="Times,serif" font-size="14.00">asm_main</text>
</g>
<!-- asm_front_shell -->
<g id="node2" class="node">
<title>asm_front_shell</title>
<ellipse fill="none" stroke="black" cx="818.84" cy="-162" rx="83.39" ry="18"/>
<text text-anchor="middle" x="818.84" y="-158.3" font-family="Times,serif" font-size="14.00">asm_front_shell</text>
</g>
<!-- asm_main&#45;&gt;asm_front_shell -->
<g id="edge1" class="edge">
<title>asm_main&#45;&gt;asm_front_shell</title>
<path fill="none" stroke="black" d="M1039.59,-221.75C996.12,-210.18 928.01,-192.06 878.94,-179"/>
<polygon fill="black" stroke="black" points="879.65,-175.56 869.09,-176.37 877.85,-182.33 879.65,-175.56"/>
</g>
<!-- asm_back_shell -->
<g id="node11" class="node">
<title>asm_back_shell</title>
<ellipse fill="none" stroke="black" cx="1505.84" cy="-162" rx="81.79" ry="18"/>
<text text-anchor="middle" x="1505.84" y="-158.3" font-family="Times,serif" font-size="14.00">asm_back_shell</text>
</g>
<!-- asm_main&#45;&gt;asm_back_shell -->
<g id="edge2" class="edge">
<title>asm_main&#45;&gt;asm_back_shell</title>
<path fill="none" stroke="black" d="M1131.31,-224.83C1205.59,-212.57 1346.41,-189.32 1432.61,-175.09"/>
<polygon fill="black" stroke="black" points="1433.29,-178.53 1442.59,-173.44 1432.15,-171.62 1433.29,-178.53"/>
</g>
<!-- asm_clock_hands -->
<g id="node3" class="node">
<title>asm_clock_hands</title>
<ellipse fill="none" stroke="black" cx="416.84" cy="-90" rx="89.88" ry="18"/>
<text text-anchor="middle" x="416.84" y="-86.3" font-family="Times,serif" font-size="14.00">asm_clock_hands</text>
</g>
<!-- asm_front_shell&#45;&gt;asm_clock_hands -->
<g id="edge3" class="edge">
<title>asm_front_shell&#45;&gt;asm_clock_hands</title>
<path fill="none" stroke="black" d="M756.03,-150.06C684.71,-137.64 568.38,-117.39 492.22,-104.13"/>
<polygon fill="black" stroke="black" points="492.67,-100.65 482.22,-102.38 491.47,-107.55 492.67,-100.65"/>
</g>
<!-- shell_front -->
<g id="node9" class="node">
<title>shell_front</title>
<ellipse fill="none" stroke="black" cx="748.84" cy="-90" rx="59.59" ry="18"/>
<text text-anchor="middle" x="748.84" y="-86.3" font-family="Times,serif" font-size="14.00">shell_front</text>
</g>
<!-- asm_front_shell&#45;&gt;shell_front -->
<g id="edge4" class="edge">
<title>asm_front_shell&#45;&gt;shell_front</title>
<path fill="none" stroke="black" d="M801.9,-144.05C793.22,-135.37 782.49,-124.64 772.96,-115.11"/>
<polygon fill="black" stroke="black" points="775.18,-112.39 765.63,-107.79 770.23,-117.33 775.18,-112.39"/>
</g>
<!-- front_glass -->
<g id="node10" class="node">
<title>front_glass</title>
<ellipse fill="none" stroke="black" cx="888.84" cy="-90" rx="61.99" ry="18"/>
<text text-anchor="middle" x="888.84" y="-86.3" font-family="Times,serif" font-size="14.00">front_glass</text>
</g>
<!-- asm_front_shell&#45;&gt;front_glass -->
<g id="edge5" class="edge">
<title>asm_front_shell&#45;&gt;front_glass</title>
<path fill="none" stroke="black" d="M835.79,-144.05C844.47,-135.37 855.2,-124.64 864.73,-115.11"/>
<polygon fill="black" stroke="black" points="867.46,-117.33 872.06,-107.79 862.51,-112.39 867.46,-117.33"/>
</g>
<!-- clock_face -->
<g id="node4" class="node">
<title>clock_face</title>
<ellipse fill="none" stroke="black" cx="57.84" cy="-18" rx="57.69" ry="18"/>
<text text-anchor="middle" x="57.84" y="-14.3" font-family="Times,serif" font-size="14.00">clock_face</text>
</g>
<!-- asm_clock_hands&#45;&gt;clock_face -->
<g id="edge6" class="edge">
<title>asm_clock_hands&#45;&gt;clock_face</title>
<path fill="none" stroke="black" d="M349.32,-78.1C289.97,-68.2 201.37,-52.63 124.84,-36 120.18,-34.99 115.35,-33.88 110.51,-32.73"/>
<polygon fill="black" stroke="black" points="111.18,-29.29 100.63,-30.32 109.52,-36.09 111.18,-29.29"/>
</g>
<!-- hand_alarm -->
<g id="node5" class="node">
<title>hand_alarm</title>
<ellipse fill="none" stroke="black" cx="198.84" cy="-18" rx="64.99" ry="18"/>
<text text-anchor="middle" x="198.84" y="-14.3" font-family="Times,serif" font-size="14.00">hand_alarm</text>
</g>
<!-- asm_clock_hands&#45;&gt;hand_alarm -->
<g id="edge7" class="edge">
<title>asm_clock_hands&#45;&gt;hand_alarm</title>
<path fill="none" stroke="black" d="M371.41,-74.41C335.79,-62.97 286.24,-47.06 249.37,-35.22"/>
<polygon fill="black" stroke="black" points="250.4,-31.88 239.81,-32.15 248.26,-38.54 250.4,-31.88"/>
</g>
<!-- hand_hour -->
<g id="node6" class="node">
<title>hand_hour</title>
<ellipse fill="none" stroke="black" cx="341.84" cy="-18" rx="59.59" ry="18"/>
<text text-anchor="middle" x="341.84" y="-14.3" font-family="Times,serif" font-size="14.00">hand_hour</text>
</g>
<!-- asm_clock_hands&#45;&gt;hand_hour -->
<g id="edge8" class="edge">
<title>asm_clock_hands&#45;&gt;hand_hour</title>
<path fill="none" stroke="black" d="M398.69,-72.05C389.15,-63.16 377.32,-52.11 366.93,-42.41"/>
<polygon fill="black" stroke="black" points="369.02,-39.57 359.32,-35.31 364.24,-44.69 369.02,-39.57"/>
</g>
<!-- hand_minute -->
<g id="node7" class="node">
<title>hand_minute</title>
<ellipse fill="none" stroke="black" cx="490.84" cy="-18" rx="70.69" ry="18"/>
<text text-anchor="middle" x="490.84" y="-14.3" font-family="Times,serif" font-size="14.00">hand_minute</text>
</g>
<!-- asm_clock_hands&#45;&gt;hand_minute -->
<g id="edge9" class="edge">
<title>asm_clock_hands&#45;&gt;hand_minute</title>
<path fill="none" stroke="black" d="M434.76,-72.05C444.1,-63.22 455.67,-52.27 465.88,-42.62"/>
<polygon fill="black" stroke="black" points="468.49,-44.96 473.35,-35.55 463.68,-39.88 468.49,-44.96"/>
</g>
<!-- hand_seconds -->
<g id="node8" class="node">
<title>hand_seconds</title>
<ellipse fill="none" stroke="black" cx="654.84" cy="-18" rx="75.29" ry="18"/>
<text text-anchor="middle" x="654.84" y="-14.3" font-family="Times,serif" font-size="14.00">hand_seconds</text>
</g>
<!-- asm_clock_hands&#45;&gt;hand_seconds -->
<g id="edge10" class="edge">
<title>asm_clock_hands&#45;&gt;hand_seconds</title>
<path fill="none" stroke="black" d="M465.29,-74.75C504.22,-63.3 558.9,-47.22 599.54,-35.27"/>
<polygon fill="black" stroke="black" points="600.68,-38.58 609.29,-32.4 598.71,-31.86 600.68,-38.58"/>
</g>
<!-- shell_back -->
<g id="node12" class="node">
<title>shell_back</title>
<ellipse fill="none" stroke="black" cx="1116.84" cy="-90" rx="58.49" ry="18"/>
<text text-anchor="middle" x="1116.84" y="-86.3" font-family="Times,serif" font-size="14.00">shell_back</text>
</g>
<!-- asm_back_shell&#45;&gt;shell_back -->
<g id="edge11" class="edge">
<title>asm_back_shell&#45;&gt;shell_back</title>
<path fill="none" stroke="black" d="M1438.85,-151.56C1373.7,-142 1272.09,-126.08 1184.84,-108 1179.91,-106.98 1174.79,-105.84 1169.67,-104.65"/>
<polygon fill="black" stroke="black" points="1170.43,-101.23 1159.89,-102.32 1168.81,-108.04 1170.43,-101.23"/>
</g>
<!-- asm_battery_container -->
<g id="node13" class="node">
<title>asm_battery_container</title>
<ellipse fill="none" stroke="black" cx="1309.84" cy="-90" rx="116.18" ry="18"/>
<text text-anchor="middle" x="1309.84" y="-86.3" font-family="Times,serif" font-size="14.00">asm_battery_container</text>
</g>
<!-- asm_back_shell&#45;&gt;asm_battery_container -->
<g id="edge12" class="edge">
<title>asm_back_shell&#45;&gt;asm_battery_container</title>
<path fill="none" stroke="black" d="M1464.76,-146.33C1435.36,-135.83 1395.5,-121.59 1363.58,-110.19"/>
<polygon fill="black" stroke="black" points="1364.54,-106.82 1353.94,-106.75 1362.18,-113.41 1364.54,-106.82"/>
</g>
<!-- asm_wheel -->
<g id="node18" class="node">
<title>asm_wheel</title>
<ellipse fill="none" stroke="black" cx="1505.84" cy="-90" rx="61.99" ry="18"/>
<text text-anchor="middle" x="1505.84" y="-86.3" font-family="Times,serif" font-size="14.00">asm_wheel</text>
</g>
<!-- asm_back_shell&#45;&gt;asm_wheel -->
<g id="edge13" class="edge">
<title>asm_back_shell&#45;&gt;asm_wheel</title>
<path fill="none" stroke="black" d="M1505.84,-143.7C1505.84,-135.98 1505.84,-126.71 1505.84,-118.11"/>
<polygon fill="black" stroke="black" points="1509.34,-118.1 1505.84,-108.1 1502.34,-118.1 1509.34,-118.1"/>
</g>
<!-- clock_inner -->
<g id="node21" class="node">
<title>clock_inner</title>
<ellipse fill="none" stroke="black" cx="1648.84" cy="-90" rx="63.09" ry="18"/>
<text text-anchor="middle" x="1648.84" y="-86.3" font-family="Times,serif" font-size="14.00">clock_inner</text>
</g>
<!-- asm_back_shell&#45;&gt;clock_inner -->
<g id="edge14" class="edge">
<title>asm_back_shell&#45;&gt;clock_inner</title>
<path fill="none" stroke="black" d="M1537.94,-145.29C1558.98,-134.99 1586.64,-121.45 1609.07,-110.47"/>
<polygon fill="black" stroke="black" points="1610.89,-113.48 1618.33,-105.94 1607.81,-107.19 1610.89,-113.48"/>
</g>
<!-- alarm_button -->
<g id="node22" class="node">
<title>alarm_button</title>
<ellipse fill="none" stroke="black" cx="1802.84" cy="-90" rx="72.59" ry="18"/>
<text text-anchor="middle" x="1802.84" y="-86.3" font-family="Times,serif" font-size="14.00">alarm_button</text>
</g>
<!-- asm_back_shell&#45;&gt;alarm_button -->
<g id="edge15" class="edge">
<title>asm_back_shell&#45;&gt;alarm_button</title>
<path fill="none" stroke="black" d="M1559.63,-148.32C1610.98,-136.22 1688.27,-118 1741.88,-105.37"/>
<polygon fill="black" stroke="black" points="1743.01,-108.7 1751.94,-103 1741.4,-101.89 1743.01,-108.7"/>
</g>
<!-- asm_back_lid -->
<g id="node23" class="node">
<title>asm_back_lid</title>
<ellipse fill="none" stroke="black" cx="1964.84" cy="-90" rx="71.49" ry="18"/>
<text text-anchor="middle" x="1964.84" y="-86.3" font-family="Times,serif" font-size="14.00">asm_back_lid</text>
</g>
<!-- asm_back_shell&#45;&gt;asm_back_lid -->
<g id="edge16" class="edge">
<title>asm_back_shell&#45;&gt;asm_back_lid</title>
<path fill="none" stroke="black" d="M1576.28,-152.66C1652.56,-143.27 1777.7,-126.85 1884.84,-108 1890.9,-106.93 1897.2,-105.74 1903.48,-104.5"/>
<polygon fill="black" stroke="black" points="1904.2,-107.92 1913.31,-102.51 1902.81,-101.06 1904.2,-107.92"/>
</g>
<!-- battery_container -->
<g id="node14" class="node">
<title>battery_container</title>
<ellipse fill="none" stroke="black" cx="840.84" cy="-18" rx="92.88" ry="18"/>
<text text-anchor="middle" x="840.84" y="-14.3" font-family="Times,serif" font-size="14.00">battery_container</text>
</g>
<!-- asm_battery_container&#45;&gt;battery_container -->
<g id="edge17" class="edge">
<title>asm_battery_container&#45;&gt;battery_container</title>
<path fill="none" stroke="black" d="M1226.32,-77.46C1151.89,-67.06 1040.01,-51.11 942.84,-36 934.9,-34.76 926.61,-33.44 918.35,-32.1"/>
<polygon fill="black" stroke="black" points="918.73,-28.61 908.3,-30.45 917.6,-35.52 918.73,-28.61"/>
</g>
<!-- battery_contact_minus -->
<g id="node15" class="node">
<title>battery_contact_minus</title>
<ellipse fill="none" stroke="black" cx="1067.84" cy="-18" rx="116.18" ry="18"/>
<text text-anchor="middle" x="1067.84" y="-14.3" font-family="Times,serif" font-size="14.00">battery_contact_minus</text>
</g>
<!-- asm_battery_container&#45;&gt;battery_contact_minus -->
<g id="edge18" class="edge">
<title>asm_battery_container&#45;&gt;battery_contact_minus</title>
<path fill="none" stroke="black" d="M1257.63,-73.9C1220.23,-63.08 1169.7,-48.46 1130.18,-37.03"/>
<polygon fill="black" stroke="black" points="1130.96,-33.61 1120.38,-34.2 1129.01,-40.34 1130.96,-33.61"/>
</g>
<!-- battery_contact_plus -->
<g id="node16" class="node">
<title>battery_contact_plus</title>
<ellipse fill="none" stroke="black" cx="1309.84" cy="-18" rx="107.48" ry="18"/>
<text text-anchor="middle" x="1309.84" y="-14.3" font-family="Times,serif" font-size="14.00">battery_contact_plus</text>
</g>
<!-- asm_battery_container&#45;&gt;battery_contact_plus -->
<g id="edge19" class="edge">
<title>asm_battery_container&#45;&gt;battery_contact_plus</title>
<path fill="none" stroke="black" d="M1309.84,-71.7C1309.84,-63.98 1309.84,-54.71 1309.84,-46.11"/>
<polygon fill="black" stroke="black" points="1313.34,-46.1 1309.84,-36.1 1306.34,-46.1 1313.34,-46.1"/>
</g>
<!-- battery_aa -->
<g id="node17" class="node">
<title>battery_aa</title>
<ellipse fill="none" stroke="black" cx="1494.84" cy="-18" rx="59.59" ry="18"/>
<text text-anchor="middle" x="1494.84" y="-14.3" font-family="Times,serif" font-size="14.00">battery_aa</text>
</g>
<!-- asm_battery_container&#45;&gt;battery_aa -->
<g id="edge20" class="edge">
<title>asm_battery_container&#45;&gt;battery_aa</title>
<path fill="none" stroke="black" d="M1351.82,-73.12C1381.07,-62.05 1420.03,-47.31 1449.9,-36.01"/>
<polygon fill="black" stroke="black" points="1451.14,-39.28 1459.26,-32.47 1448.67,-32.73 1451.14,-39.28"/>
</g>
<!-- wheel -->
<g id="node19" class="node">
<title>wheel</title>
<ellipse fill="none" stroke="black" cx="1610.84" cy="-18" rx="38.19" ry="18"/>
<text text-anchor="middle" x="1610.84" y="-14.3" font-family="Times,serif" font-size="14.00">wheel</text>
</g>
<!-- asm_wheel&#45;&gt;wheel -->
<g id="edge21" class="edge">
<title>asm_wheel&#45;&gt;wheel</title>
<path fill="none" stroke="black" d="M1529.41,-73.29C1544.61,-63.16 1564.52,-49.88 1580.85,-39"/>
<polygon fill="black" stroke="black" points="1583.12,-41.69 1589.5,-33.23 1579.24,-35.86 1583.12,-41.69"/>
</g>
<!-- wheel_axis -->
<g id="node20" class="node">
<title>wheel_axis</title>
<ellipse fill="none" stroke="black" cx="1727.84" cy="-18" rx="61.19" ry="18"/>
<text text-anchor="middle" x="1727.84" y="-14.3" font-family="Times,serif" font-size="14.00">wheel_axis</text>
</g>
<!-- asm_wheel&#45;&gt;wheel_axis -->
<g id="edge22" class="edge">
<title>asm_wheel&#45;&gt;wheel_axis</title>
<path fill="none" stroke="black" d="M1546.05,-76.32C1583.02,-64.66 1637.99,-47.33 1677.79,-34.78"/>
<polygon fill="black" stroke="black" points="1679.08,-38.05 1687.57,-31.7 1676.98,-31.37 1679.08,-38.05"/>
</g>
<!-- back_lid -->
<g id="node24" class="node">
<title>back_lid</title>
<ellipse fill="none" stroke="black" cx="1909.84" cy="-18" rx="48.19" ry="18"/>
<text text-anchor="middle" x="1909.84" y="-14.3" font-family="Times,serif" font-size="14.00">back_lid</text>
</g>
<!-- asm_back_lid&#45;&gt;back_lid -->
<g id="edge23" class="edge">
<title>asm_back_lid&#45;&gt;back_lid</title>
<path fill="none" stroke="black" d="M1951.53,-72.05C1944.84,-63.54 1936.61,-53.07 1929.24,-43.68"/>
<polygon fill="black" stroke="black" points="1931.97,-41.49 1923.04,-35.79 1926.46,-45.81 1931.97,-41.49"/>
</g>
<!-- back_lid_foam -->
<g id="node25" class="node">
<title>back_lid_foam</title>
<ellipse fill="none" stroke="black" cx="2050.84" cy="-18" rx="75.29" ry="18"/>
<text text-anchor="middle" x="2050.84" y="-14.3" font-family="Times,serif" font-size="14.00">back_lid_foam</text>
</g>
<!-- asm_back_lid&#45;&gt;back_lid_foam -->
<g id="edge24" class="edge">
<title>asm_back_lid&#45;&gt;back_lid_foam</title>
<path fill="none" stroke="black" d="M1985.23,-72.41C1996.36,-63.34 2010.33,-51.97 2022.52,-42.06"/>
<polygon fill="black" stroke="black" points="2025.06,-44.5 2030.61,-35.47 2020.65,-39.07 2025.06,-44.5"/>
</g>
</g>
</svg>
